<svg width="16" height="16" viewBox="0 0 16 16" fill="none" xmlns="http://www.w3.org/2000/svg">
<mask id="mask0_902_5164" style="mask-type:alpha" maskUnits="userSpaceOnUse" x="0" y="0" width="16" height="16">
<rect width="16" height="16" fill="#D9D9D9"/>
</mask>
<g mask="url(#mask0_902_5164)">
<path d="M7.99935 15.3335L3.19935 11.7335C3.03268 11.6113 2.90213 11.4557 2.80768 11.2668C2.71324 11.0779 2.66602 10.8779 2.66602 10.6668V2.66683C2.66602 2.30016 2.79657 1.98627 3.05768 1.72516C3.31879 1.46405 3.63268 1.3335 3.99935 1.3335H11.9993C12.366 1.3335 12.6799 1.46405 12.941 1.72516C13.2021 1.98627 13.3327 2.30016 13.3327 2.66683V10.6668C13.3327 10.8779 13.2855 11.0779 13.191 11.2668C13.0966 11.4557 12.966 11.6113 12.7993 11.7335L7.99935 15.3335ZM7.99935 13.6668L11.9993 10.6668V2.66683H3.99935V10.6668L7.99935 13.6668ZM7.29935 10.0002L11.066 6.2335L10.1327 5.26683L7.29935 8.10016L5.89935 6.70016L4.93268 7.6335L7.29935 10.0002Z" fill="#00713B"/>
</g>
</svg>
