<svg width="17" height="17" viewBox="0 0 17 17" fill="none" xmlns="http://www.w3.org/2000/svg">
<mask id="mask0_776_9280" style="mask-type:alpha" maskUnits="userSpaceOnUse" x="0" y="0" width="17" height="17">
<rect width="17" height="17" fill="#D9D9D9"/>
</mask>
<g mask="url(#mask0_776_9280)">
<path d="M7.78906 12.042H9.20573V7.79199H7.78906V12.042ZM8.4974 6.37533C8.69809 6.37533 8.86632 6.30744 9.00208 6.17168C9.13785 6.03592 9.20573 5.86769 9.20573 5.66699C9.20573 5.4663 9.13785 5.29807 9.00208 5.1623C8.86632 5.02654 8.69809 4.95866 8.4974 4.95866C8.2967 4.95866 8.12847 5.02654 7.99271 5.1623C7.85695 5.29807 7.78906 5.4663 7.78906 5.66699C7.78906 5.86769 7.85695 6.03592 7.99271 6.17168C8.12847 6.30744 8.2967 6.37533 8.4974 6.37533ZM8.4974 15.5837C7.51754 15.5837 6.5967 15.3977 5.7349 15.0258C4.87309 14.654 4.12344 14.1493 3.48594 13.5118C2.84844 12.8743 2.34375 12.1246 1.97188 11.2628C1.6 10.401 1.41406 9.48019 1.41406 8.50033C1.41406 7.52046 1.6 6.59963 1.97188 5.73783C2.34375 4.87602 2.84844 4.12637 3.48594 3.48887C4.12344 2.85137 4.87309 2.34668 5.7349 1.9748C6.5967 1.60293 7.51754 1.41699 8.4974 1.41699C9.47726 1.41699 10.3981 1.60293 11.2599 1.9748C12.1217 2.34668 12.8714 2.85137 13.5089 3.48887C14.1464 4.12637 14.651 4.87602 15.0229 5.73783C15.3948 6.59963 15.5807 7.52046 15.5807 8.50033C15.5807 9.48019 15.3948 10.401 15.0229 11.2628C14.651 12.1246 14.1464 12.8743 13.5089 13.5118C12.8714 14.1493 12.1217 14.654 11.2599 15.0258C10.3981 15.3977 9.47726 15.5837 8.4974 15.5837Z" fill="#425466"/>
</g>
</svg>
