<svg width="17" height="17" viewBox="0 0 17 17" fill="none" xmlns="http://www.w3.org/2000/svg">
<mask id="mask0_776_9285" style="mask-type:alpha" maskUnits="userSpaceOnUse" x="0" y="0" width="17" height="17">
<rect width="17" height="17" fill="#D9D9D9"/>
</mask>
<g mask="url(#mask0_776_9285)">
<path d="M7.78906 12.0413H4.95573C3.97587 12.0413 3.14063 11.696 2.45 11.0054C1.75937 10.3148 1.41406 9.47954 1.41406 8.49967C1.41406 7.51981 1.75937 6.68457 2.45 5.99395C3.14063 5.30332 3.97587 4.95801 4.95573 4.95801H7.78906V6.37467H4.95573C4.36545 6.37467 3.86372 6.58127 3.45052 6.99447C3.03733 7.40766 2.83073 7.9094 2.83073 8.49967C2.83073 9.08995 3.03733 9.59169 3.45052 10.0049C3.86372 10.4181 4.36545 10.6247 4.95573 10.6247H7.78906V12.0413ZM5.66406 9.20801V7.79134H11.3307V9.20801H5.66406ZM9.20573 12.0413V10.6247H12.0391C12.6293 10.6247 13.1311 10.4181 13.5443 10.0049C13.9575 9.59169 14.1641 9.08995 14.1641 8.49967C14.1641 7.9094 13.9575 7.40766 13.5443 6.99447C13.1311 6.58127 12.6293 6.37467 12.0391 6.37467H9.20573V4.95801H12.0391C13.0189 4.95801 13.8542 5.30332 14.5448 5.99395C15.2354 6.68457 15.5807 7.51981 15.5807 8.49967C15.5807 9.47954 15.2354 10.3148 14.5448 11.0054C13.8542 11.696 13.0189 12.0413 12.0391 12.0413H9.20573Z" fill="#425466"/>
</g>
</svg>
