<svg width="173" height="40" viewBox="0 0 173 40" fill="none" xmlns="http://www.w3.org/2000/svg">
<path d="M10.692 22H1.276V6.006H10.692C13.0093 6.006 14.9087 6.73933 16.39 8.206C17.8713 9.658 18.612 11.5353 18.612 13.838C18.612 16.17 17.864 18.1133 16.368 19.668C14.872 21.2227 12.98 22 10.692 22ZM4.686 18.568H10.692C11.9973 18.568 13.068 18.1427 13.904 17.292C14.7547 16.4267 15.18 15.334 15.18 14.014C15.18 12.6793 14.7547 11.5867 13.904 10.736C13.068 9.87067 11.9973 9.438 10.692 9.438H4.686V18.568ZM38.9005 22H34.7865L32.5425 18.216H25.7885L27.3505 15.554H30.9585L28.0325 10.626L21.3225 22H17.4285L26.5145 6.886C26.9545 6.15267 27.5045 5.786 28.1645 5.786C28.8245 5.786 29.3745 6.15267 29.8145 6.886L38.9005 22ZM45.8801 22H42.4481V9.438H36.5741V6.006H51.7541V9.438H45.8801V22ZM70.6973 22H66.5833L64.3393 18.216H57.5853L59.1473 15.554H62.7553L59.8293 10.626L53.1193 22H49.2253L58.3113 6.886C58.7513 6.15267 59.3013 5.786 59.9613 5.786C60.6213 5.786 61.1713 6.15267 61.6113 6.886L70.6973 22ZM84.2739 22H72.1959V18.568H84.2739C84.8899 18.568 85.3666 18.4213 85.7039 18.128C86.0413 17.8347 86.2099 17.4313 86.2099 16.918C86.2099 16.3753 86.0413 15.9573 85.7039 15.664C85.3666 15.3707 84.8899 15.224 84.2739 15.224H77.0359C75.4813 15.224 74.2419 14.7987 73.3179 13.948C72.4086 13.0973 71.9539 11.99 71.9539 10.626C71.9539 9.262 72.4013 8.15467 73.2959 7.304C74.2053 6.43867 75.4666 6.006 77.0799 6.006H88.6519V9.438H77.0799C76.5959 9.438 76.2146 9.57733 75.9359 9.856C75.6573 10.12 75.5179 10.494 75.5179 10.978C75.5179 11.462 75.6573 11.8433 75.9359 12.122C76.2146 12.386 76.5959 12.518 77.0799 12.518H84.2739C87.7206 12.518 89.4439 14.08 89.4439 17.204C89.4439 18.6413 88.9966 19.8 88.1019 20.68C87.2219 21.56 85.9459 22 84.2739 22ZM99.9778 22H96.5458V9.438H90.6718V6.006H105.852V9.438H99.9778V22ZM121.443 14.938V6.006H124.787V14.938C124.787 17.446 124.098 19.2867 122.719 20.46C121.355 21.6333 119.119 22.22 116.009 22.22C112.915 22.22 110.678 21.6333 109.299 20.46C107.921 19.2867 107.231 17.446 107.231 14.938V6.006H110.773V14.938C110.773 16.3753 111.155 17.3873 111.917 17.974C112.695 18.5607 114.095 18.854 116.119 18.854C118.129 18.854 119.515 18.5607 120.277 17.974C121.055 17.3873 121.443 16.3753 121.443 14.938ZM136.505 22H127.089V6.006H136.505C138.822 6.006 140.721 6.73933 142.203 8.206C143.684 9.658 144.425 11.5353 144.425 13.838C144.425 16.17 143.677 18.1133 142.181 19.668C140.685 21.2227 138.793 22 136.505 22ZM130.499 18.568H136.505C137.81 18.568 138.881 18.1427 139.717 17.292C140.567 16.4267 140.993 15.334 140.993 14.014C140.993 12.6793 140.567 11.5867 139.717 10.736C138.881 9.87067 137.81 9.438 136.505 9.438H130.499V18.568ZM150.075 22H146.643V6.006H150.075V22ZM164.18 22H160.22C157.946 22 156.062 21.2227 154.566 19.668C153.07 18.1133 152.322 16.17 152.322 13.838C152.322 11.506 153.062 9.62133 154.544 8.184C156.025 6.732 157.917 6.006 160.22 6.006H164.18C166.541 6.006 168.455 6.732 169.922 8.184C171.403 9.636 172.144 11.5207 172.144 13.838C172.144 16.17 171.388 18.1133 169.878 19.668C168.382 21.2227 166.482 22 164.18 22ZM160.22 18.568H164.18C165.5 18.568 166.585 18.1427 167.436 17.292C168.286 16.4267 168.712 15.334 168.712 14.014C168.712 12.6793 168.286 11.5867 167.436 10.736C166.6 9.87067 165.514 9.438 164.18 9.438H160.22C158.929 9.438 157.858 9.87067 157.008 10.736C156.172 11.5867 155.754 12.6793 155.754 14.014C155.754 15.334 156.172 16.4267 157.008 17.292C157.858 18.1427 158.929 18.568 160.22 18.568Z" fill="url(#paint0_linear_855_3)"/>
<path d="M114.766 32.2891H116.422C117.148 32.2891 117.695 32.3958 118.062 32.6094C118.43 32.8229 118.613 33.1888 118.613 33.707C118.613 33.9284 118.573 34.1263 118.492 34.3008C118.411 34.4753 118.294 34.6198 118.141 34.7344C117.987 34.849 117.798 34.9271 117.574 34.9688V35.0078C117.809 35.0469 118.017 35.1172 118.199 35.2188C118.382 35.3203 118.525 35.4648 118.629 35.6523C118.736 35.8372 118.789 36.0755 118.789 36.3672C118.789 36.7161 118.707 37.013 118.543 37.2578C118.379 37.5 118.146 37.6849 117.844 37.8125C117.544 37.9375 117.188 38 116.773 38H114.766V32.2891ZM115.566 34.6914H116.562C117.023 34.6914 117.342 34.6159 117.52 34.4648C117.697 34.3138 117.785 34.0938 117.785 33.8047C117.785 33.5052 117.68 33.2904 117.469 33.1602C117.258 33.0273 116.923 32.9609 116.465 32.9609H115.566V34.6914ZM115.566 35.3516V37.3242H116.656C117.128 37.3242 117.46 37.2318 117.652 37.0469C117.848 36.862 117.945 36.6133 117.945 36.3008C117.945 36.1029 117.901 35.9336 117.812 35.793C117.727 35.6497 117.586 35.5404 117.391 35.4648C117.195 35.3893 116.932 35.3516 116.602 35.3516H115.566ZM119.227 33.6953H120.074L120.988 36.1758C121.035 36.3034 121.078 36.4284 121.117 36.5508C121.159 36.6706 121.194 36.7878 121.223 36.9023C121.254 37.0143 121.279 37.125 121.297 37.2344H121.324C121.355 37.1016 121.4 36.9401 121.457 36.75C121.514 36.5599 121.577 36.3672 121.645 36.1719L122.52 33.6953H123.363L121.504 38.6094C121.402 38.8828 121.279 39.1172 121.133 39.3125C120.99 39.5104 120.819 39.6615 120.621 39.7656C120.423 39.8724 120.189 39.9258 119.918 39.9258C119.793 39.9258 119.682 39.918 119.586 39.9023C119.492 39.8893 119.411 39.8737 119.344 39.8555V39.2305C119.401 39.2435 119.47 39.2552 119.551 39.2656C119.634 39.276 119.72 39.2812 119.809 39.2812C119.973 39.2812 120.113 39.2487 120.23 39.1836C120.35 39.1211 120.452 39.0312 120.535 38.9141C120.621 38.7969 120.693 38.6602 120.75 38.5039L120.945 37.9961L119.227 33.6953ZM127.526 38H126.278V32.184H127.526V38ZM133.479 37.84L129.671 34.128V38H128.487V32.848C128.487 32.6187 128.543 32.44 128.655 32.312C128.767 32.1787 128.919 32.112 129.111 32.112C129.287 32.112 129.455 32.1893 129.615 32.344L133.423 36V32.128H134.615V37.336C134.615 37.5653 134.556 37.7467 134.439 37.88C134.327 38.0133 134.178 38.08 133.991 38.08C133.81 38.08 133.639 38 133.479 37.84ZM138.943 38H135.519V32.184H138.943C139.785 32.184 140.476 32.4507 141.015 32.984C141.553 33.512 141.823 34.1947 141.823 35.032C141.823 35.88 141.551 36.5867 141.007 37.152C140.463 37.7173 139.775 38 138.943 38ZM136.759 36.752H138.943C139.417 36.752 139.807 36.5973 140.111 36.288C140.42 35.9733 140.575 35.576 140.575 35.096C140.575 34.6107 140.42 34.2133 140.111 33.904C139.807 33.5893 139.417 33.432 138.943 33.432H136.759V36.752ZM143.877 38H142.629V32.184H143.877V38ZM151.414 38H149.55L146.694 35.536C146.524 35.392 146.438 35.2213 146.438 35.024C146.438 34.816 146.542 34.6267 146.75 34.456L149.438 32.184H151.302L147.846 35.032L151.414 38ZM146.11 38H144.862V32.184H146.11V38ZM159.403 38H157.907L157.091 36.624H154.635L155.203 35.656H156.515L155.451 33.864L153.011 38H151.595L154.899 32.504C155.059 32.2373 155.259 32.104 155.499 32.104C155.739 32.104 155.939 32.2373 156.099 32.504L159.403 38ZM169.755 38H168.259L167.443 36.624H164.987L165.555 35.656H166.867L165.803 33.864L163.363 38H161.947L165.251 32.504C165.411 32.2373 165.611 32.104 165.851 32.104C166.091 32.104 166.291 32.2373 166.451 32.504L169.755 38ZM171.604 38H170.356V32.184H171.604V38Z" fill="#A3A3A3"/>
<defs>
<linearGradient id="paint0_linear_855_3" x1="-31.9504" y1="15.8823" x2="173" y2="15.1176" gradientUnits="userSpaceOnUse">
<stop stop-color="#0A60D2"/>
<stop offset="1" stop-color="#4DC9F0"/>
</linearGradient>
</defs>
</svg>
