<svg width="17" height="18" viewBox="0 0 17 18" fill="none" xmlns="http://www.w3.org/2000/svg">
<mask id="mask0_776_9260" style="mask-type:alpha" maskUnits="userSpaceOnUse" x="0" y="0" width="17" height="18">
<rect y="0.5" width="17" height="17" fill="#D9D9D9"/>
</mask>
<g mask="url(#mask0_776_9260)">
<path d="M4.96094 15.375C4.57135 15.375 4.23785 15.2363 3.96042 14.9589C3.68299 14.6814 3.54427 14.3479 3.54427 13.9583V4.75H2.83594V3.33333H6.3776V2.625H10.6276V3.33333H14.1693V4.75H13.4609V13.9583C13.4609 14.3479 13.3222 14.6814 13.0448 14.9589C12.7674 15.2363 12.4339 15.375 12.0443 15.375H4.96094ZM12.0443 4.75H4.96094V13.9583H12.0443V4.75ZM6.3776 12.5417H7.79427V6.16667H6.3776V12.5417ZM9.21094 12.5417H10.6276V6.16667H9.21094V12.5417Z" fill="#FF1E1E"/>
</g>
</svg>
