<svg width="17" height="18" viewBox="0 0 17 18" fill="none" xmlns="http://www.w3.org/2000/svg">
<mask id="mask0_776_9250" style="mask-type:alpha" maskUnits="userSpaceOnUse" x="0" y="0" width="17" height="18">
<rect y="0.5" width="17" height="17" fill="#D9D9D9"/>
</mask>
<g mask="url(#mask0_776_9250)">
<path d="M3.54167 13.9587H4.53333L10.6427 7.84928L9.65104 6.85762L3.54167 12.967V13.9587ZM13.6708 6.8222L10.6604 3.8472L11.6521 2.85553C11.9236 2.58401 12.2571 2.44824 12.6526 2.44824C13.0481 2.44824 13.3816 2.58401 13.6531 2.85553L14.6448 3.8472C14.9163 4.11873 15.058 4.44633 15.0698 4.83001C15.0816 5.21369 14.9517 5.5413 14.6802 5.81283L13.6708 6.8222ZM12.6438 7.86699L5.13542 15.3753H2.125V12.3649L9.63333 4.85658L12.6438 7.86699Z" fill="#425466"/>
</g>
</svg>
