<svg xmlns="http://www.w3.org/2000/svg" xmlns:xlink="http://www.w3.org/1999/xlink" viewBox="0,0,256,256" width="25px" height="25px"><defs><linearGradient x1="-0.265" y1="49.829" x2="16.79" y2="29.504" gradientUnits="userSpaceOnUse" id="color-1"><stop offset="0" stop-color="#000000" stop-opacity="0"></stop><stop offset="1" stop-color="#262626"></stop></linearGradient><linearGradient x1="-7.534" y1="48.46" x2="76.129" y2="-21.742" gradientUnits="userSpaceOnUse" id="color-2"><stop offset="0" stop-color="#000000" stop-opacity="0"></stop><stop offset="1" stop-color="#262626"></stop></linearGradient><linearGradient x1="12.607" y1="51.081" x2="29.642" y2="4.278" gradientUnits="userSpaceOnUse" id="color-3"><stop offset="0" stop-color="#000000" stop-opacity="0"></stop><stop offset="1" stop-color="#262626"></stop></linearGradient></defs><g transform="translate(12.8,12.8) scale(0.9,0.9)"><g fill="#adacac" fill-rule="nonzero" stroke="none" stroke-width="1" stroke-linecap="butt" stroke-linejoin="miter" stroke-miterlimit="10" stroke-dasharray="" stroke-dashoffset="0" font-family="none" font-weight="none" font-size="none" text-anchor="none" style="mix-blend-mode: normal"><path d="M-14.22222,270.22222v-284.44444h284.44444v284.44444z" id="bgRectangle"></path></g><g fill="#cccccc" fill-rule="nonzero" stroke="none" stroke-width="1" stroke-linecap="butt" stroke-linejoin="miter" stroke-miterlimit="10" stroke-dasharray="" stroke-dashoffset="0" font-family="none" font-weight="none" font-size="none" text-anchor="none" style="mix-blend-mode: normal"><path d="M56.88889,270.22222c-39.27358,0 -71.11111,-31.83753 -71.11111,-71.11111v-142.22222c0,-39.27358 31.83753,-71.11111 71.11111,-71.11111h142.22222c39.27358,0 71.11111,31.83753 71.11111,71.11111v142.22222c0,39.27358 -31.83753,71.11111 -71.11111,71.11111z" id="shape"></path></g><g fill="none" fill-rule="nonzero" stroke="none" stroke-width="none" stroke-linecap="butt" stroke-linejoin="none" stroke-miterlimit="10" stroke-dasharray="" stroke-dashoffset="0" font-family="none" font-weight="none" font-size="none" text-anchor="none" style="mix-blend-mode: normal"><path transform="scale(5.33333,5.33333)" d="M4,46v-33c0,-3.314 2.686,-6 6,-6h34v24c0,3.314 -2.686,6 -6,6h-21z" id="strokeMainSVG" fill="#dddddd" stroke="#dddddd" stroke-width="2" stroke-linejoin="round"></path><g transform="scale(5.33333,5.33333)" stroke="none" stroke-width="1" stroke-linejoin="miter"><path d="M4,46v-9h13z" fill="url(#color-1)"></path><path d="M38,37h-34v-24c0,-3.314 2.686,-6 6,-6h34v24c0,3.314 -2.686,6 -6,6z" fill="url(#color-2)"></path><path d="M25.619,27h-3.333c0,-4.079 1.435,-6.306 2.809,-8.057c0.502,-0.64 0.665,-1.786 0.272,-2.499c-0.385,-0.698 -1.084,-1.111 -1.893,-1.111h-0.355c-1.381,0 -2.5,-1.119 -2.5,-2.5v-0.833h2.669c1.972,0 3.875,0.956 4.89,2.646c1.206,2.008 1.036,4.462 -0.39,6.264c-1.143,1.446 -2.169,2.999 -2.169,6.09zM24,29c-1.105,0 -2,0.895 -2,2c0,1.105 0.895,2 2,2c1.105,0 2,-0.895 2,-2c0,-1.105 -0.895,-2 -2,-2z" fill="url(#color-3)"></path></g></g></g></svg>