<svg width="17" height="17" viewBox="0 0 17 17" fill="none" xmlns="http://www.w3.org/2000/svg">
<mask id="mask0_902_887" style="mask-type:alpha" maskUnits="userSpaceOnUse" x="0" y="0" width="17" height="17">
<rect width="17" height="17" fill="#D9D9D9"/>
</mask>
<g mask="url(#mask0_902_887)">
<path d="M8.5 15.5835C7.61458 15.5835 6.78524 15.4153 6.01198 15.0788C5.23872 14.7424 4.5658 14.2878 3.99323 13.7153C3.42066 13.1427 2.96615 12.4698 2.62969 11.6965C2.29323 10.9233 2.125 10.0939 2.125 9.2085H3.54167C3.54167 10.5897 4.02274 11.7614 4.9849 12.7236C5.94705 13.6858 7.11875 14.1668 8.5 14.1668C9.88125 14.1668 11.053 13.6858 12.0151 12.7236C12.9773 11.7614 13.4583 10.5897 13.4583 9.2085C13.4583 7.82725 12.9773 6.65554 12.0151 5.69339C11.053 4.73124 9.88125 4.25016 8.5 4.25016H8.39375L9.49167 5.34808L8.5 6.37516L5.66667 3.54183L8.5 0.708496L9.49167 1.73558L8.39375 2.8335H8.5C9.38542 2.8335 10.2148 3.00173 10.988 3.33818C11.7613 3.67464 12.4342 4.12916 13.0068 4.70173C13.5793 5.27429 14.0339 5.94721 14.3703 6.72048C14.7068 7.49374 14.875 8.32308 14.875 9.2085C14.875 10.0939 14.7068 10.9233 14.3703 11.6965C14.0339 12.4698 13.5793 13.1427 13.0068 13.7153C12.4342 14.2878 11.7613 14.7424 10.988 15.0788C10.2148 15.4153 9.38542 15.5835 8.5 15.5835Z" fill="#1A73E8"/>
</g>
</svg>
