<svg width="16" height="16" viewBox="0 0 16 16" fill="none" xmlns="http://www.w3.org/2000/svg">
<mask id="mask0_902_5170" style="mask-type:alpha" maskUnits="userSpaceOnUse" x="0" y="0" width="16" height="16">
<rect width="16" height="16" fill="#D9D9D9"/>
</mask>
<g mask="url(#mask0_902_5170)">
<mask id="mask1_902_5170" style="mask-type:alpha" maskUnits="userSpaceOnUse" x="0" y="0" width="16" height="16">
<rect width="16" height="16" fill="#D9D9D9"/>
</mask>
<g mask="url(#mask1_902_5170)">
<path d="M8.00065 14.6668C7.07843 14.6668 6.21176 14.4918 5.40065 14.1418C4.58954 13.7918 3.88398 13.3168 3.28398 12.7168C2.68398 12.1168 2.20898 11.4113 1.85898 10.6002C1.50898 9.78905 1.33398 8.92238 1.33398 8.00016C1.33398 7.07794 1.50898 6.21127 1.85898 5.40016C2.20898 4.58905 2.68398 3.8835 3.28398 3.2835C3.88398 2.6835 4.58954 2.2085 5.40065 1.8585C6.21176 1.5085 7.07843 1.3335 8.00065 1.3335C8.92287 1.3335 9.78954 1.5085 10.6007 1.8585C11.4118 2.2085 12.1173 2.6835 12.7173 3.2835C13.3173 3.8835 13.7923 4.58905 14.1423 5.40016C14.4923 6.21127 14.6673 7.07794 14.6673 8.00016C14.6673 8.92238 14.4923 9.78905 14.1423 10.6002C13.7923 11.4113 13.3173 12.1168 12.7173 12.7168C12.1173 13.3168 11.4118 13.7918 10.6007 14.1418C9.78954 14.4918 8.92287 14.6668 8.00065 14.6668ZM8.00065 13.3335C9.48954 13.3335 10.7507 12.8168 11.784 11.7835C12.8173 10.7502 13.334 9.48905 13.334 8.00016C13.334 6.51127 12.8173 5.25016 11.784 4.21683C10.7507 3.1835 9.48954 2.66683 8.00065 2.66683C6.51176 2.66683 5.25065 3.1835 4.21732 4.21683C3.18398 5.25016 2.66732 6.51127 2.66732 8.00016C2.66732 9.48905 3.18398 10.7502 4.21732 11.7835C5.25065 12.8168 6.51176 13.3335 8.00065 13.3335ZM8.00065 12.6668C8.27843 12.6668 8.51454 12.5696 8.70898 12.3752C8.90343 12.1807 9.00065 11.9446 9.00065 11.6668H7.00065C7.00065 11.9446 7.09787 12.1807 7.29232 12.3752C7.48676 12.5696 7.72287 12.6668 8.00065 12.6668ZM6.00065 11.0002H10.0007V10.0002H6.00065V11.0002ZM6.01732 9.3335H9.98398C10.3951 9.0335 10.7229 8.65294 10.9673 8.19183C11.2118 7.73072 11.334 7.22238 11.334 6.66683C11.334 5.74461 11.009 4.9585 10.359 4.3085C9.70898 3.6585 8.92287 3.3335 8.00065 3.3335C7.07843 3.3335 6.29232 3.6585 5.64232 4.3085C4.99232 4.9585 4.66732 5.74461 4.66732 6.66683C4.66732 7.22238 4.78954 7.73072 5.03398 8.19183C5.27843 8.65294 5.60621 9.0335 6.01732 9.3335ZM6.38398 8.3335C6.16176 8.11127 5.98676 7.8585 5.85898 7.57516C5.73121 7.29183 5.66732 6.98905 5.66732 6.66683C5.66732 6.02238 5.8951 5.47238 6.35065 5.01683C6.80621 4.56127 7.35621 4.3335 8.00065 4.3335C8.64509 4.3335 9.1951 4.56127 9.65065 5.01683C10.1062 5.47238 10.334 6.02238 10.334 6.66683C10.334 6.98905 10.2701 7.29183 10.1423 7.57516C10.0145 7.8585 9.83954 8.11127 9.61732 8.3335H6.38398Z" fill="#3083FF"/>
</g>
</g>
</svg>
