<!-- <svg xmlns="http://www.w3.org/2000/svg"  viewBox="0 0 48 48" width="70px" height="70px"><linearGradient id="wZGpzcUawlversdxtSVKMa" x1="22.255" x2="28.545" y1="18.269" y2="43.563" gradientUnits="userSpaceOnUse"><stop offset="0" stop-color="#32bdef"/><stop offset="1" stop-color="#1ea2e4"/></linearGradient><path fill="url(#wZGpzcUawlversdxtSVKMa)" d="M31.789,24.789l-6.728-6.728c-0.586-0.586-1.536-0.586-2.121,0l-6.728,6.728	C15.764,25.236,16.081,26,16.713,26H21v16c0,0.552,0.448,1,1,1h4c0.552,0,1-0.448,1-1V26h4.287	C31.919,26,32.236,25.236,31.789,24.789z"/><linearGradient id="wZGpzcUawlversdxtSVKMb" x1="42" x2="42" y1="4.513" y2="16.282" gradientUnits="userSpaceOnUse"><stop offset="0" stop-color="#32bdef"/><stop offset="1" stop-color="#1ea2e4"/></linearGradient><path fill="url(#wZGpzcUawlversdxtSVKMb)" d="M43.828,9.828L39,5v10c0,0.552,0.448,1,1,1h4c0.552,0,1-0.448,1-1v-2.343	C45,11.596,44.579,10.579,43.828,9.828z"/><linearGradient id="wZGpzcUawlversdxtSVKMc" x1="6" x2="6" y1="4.513" y2="16.282" gradientUnits="userSpaceOnUse"><stop offset="0" stop-color="#32bdef"/><stop offset="1" stop-color="#1ea2e4"/></linearGradient><path fill="url(#wZGpzcUawlversdxtSVKMc)" d="M9,5L4.172,9.828C3.421,10.579,3,11.596,3,12.657V15c0,0.552,0.448,1,1,1h4	c0.552,0,1-0.448,1-1V5z"/><linearGradient id="wZGpzcUawlversdxtSVKMd" x1="9" x2="39" y1="8" y2="8" gradientUnits="userSpaceOnUse"><stop offset="0" stop-color="#0362b0"/><stop offset=".112" stop-color="#036abd"/><stop offset=".258" stop-color="#036fc5"/><stop offset=".5" stop-color="#0370c8"/><stop offset=".742" stop-color="#036fc5"/><stop offset=".888" stop-color="#036abd"/><stop offset="1" stop-color="#0362b0"/></linearGradient><rect width="30" height="6" x="9" y="5" fill="url(#wZGpzcUawlversdxtSVKMd)"/></svg> -->

<svg width="65" height="64" viewBox="0 0 65 64" fill="none" xmlns="http://www.w3.org/2000/svg">
<path d="M30.4993 53.3334H17.2327C13.3216 53.3334 9.99935 51.9667 7.26602 49.2334C4.53268 46.5001 3.16602 43.1778 3.16602 39.2667C3.16602 35.8001 4.27713 32.7556 6.49935 30.1334C8.72157 27.5112 11.5438 25.9334 14.966 25.4001C15.8549 21.089 17.9438 17.5667 21.2327 14.8334C24.5216 12.1001 28.3216 10.7334 32.6327 10.7334C37.6105 10.7334 41.8105 12.5445 45.2327 16.1667C48.6549 19.789 50.366 24.1334 50.366 29.2001V30.8001C53.566 30.7112 56.2771 31.7445 58.4994 33.9001C60.7216 36.0556 61.8327 38.7778 61.8327 42.0667C61.8327 45.1334 60.7216 47.7778 58.4994 50.0001C56.2771 52.2223 53.6327 53.3334 50.566 53.3334H34.4994V32.1334L40.0327 37.6667L42.8993 34.8001L32.4993 24.4001L22.0993 34.8001L24.966 37.6667L30.4993 32.1334V53.3334Z" fill="#1A73E8"/>
</svg>
